<mxfile host="Electron" modified="2025-05-13T19:47:02.686Z" agent="5.0 (Windows NT 10.0; WOW64) AppleWebKit/537.36 (KHTML, like Gecko) draw.io/14.1.8 Chrome/87.0.4280.88 Electron/11.1.1 Safari/537.36" etag="XTZYFfecHzC3LCQpdFCK" compressed="false" version="14.1.8" type="device">
  <diagram id="UxMqaiS_ZeVZrvt0yCDw" name="Page-1">
    <mxGraphModel dx="1066" dy="798" grid="1" gridSize="10" guides="1" tooltips="1" connect="1" arrows="1" fold="1" page="1" pageScale="1" pageWidth="1100" pageHeight="850" math="0" shadow="0">
      <root>
        <mxCell id="0" />
        <mxCell id="1" parent="0" />
        <object label="bookRefundableTickets OR PREV(nonRefTixFailed) AND (cost GT 50) AND (privacy LT 0.5) AND headAvailable OR flightsExist" concept="precondition" usage="&#xa;&#xa;Use operators AND, OR, NOT, PREV, and GT (for &gt;), LT (for &lt;), GTE (for &gt;=), LTE (for &lt;=), EQ (for ==), NEQ (for !=). Ground atoms are predicates or camel-case representaitons of goals, task, predicates. DO NOT USE any formatting (boldface etc.). " id="s7Z0I-bON0rsUeWnYovQ-38">
          <mxCell style="rounded=0;whiteSpace=wrap;html=1;strokeWidth=3;fontSize=15;fillColor=#f8cecc;strokeColor=#b85450;" vertex="1" parent="1">
            <mxGeometry x="550" y="70" width="400" height="60" as="geometry" />
          </mxCell>
        </object>
        <object label="flightsExist, headAvailable, cost := 70" concept="initialization" usage="Comma separated list of identifiers. Predicates as-is, goals, tasks, through camel-case representation. Variables and qualities are of the form [identifier] := [constant]" id="s7Z0I-bON0rsUeWnYovQ-39">
          <mxCell style="rounded=0;whiteSpace=wrap;html=1;fillColor=#dae8fc;strokeColor=#7570b3;align=left;labelPosition=center;verticalLabelPosition=middle;verticalAlign=middle;horizontal=1;strokeWidth=3;spacingLeft=4;" vertex="1" parent="1">
            <mxGeometry x="210" y="710" width="100" height="50" as="geometry" />
          </mxCell>
        </object>
        <object label="ticketsBooked, overallQuality, cmtGranted, privacy(0,1)" concept="export" usage="Comma separated list of identifiers. Predicates, variable as-is, goals, tasks, qualities, through camel-case representation." id="s7Z0I-bON0rsUeWnYovQ-40">
          <mxCell style="rounded=0;whiteSpace=wrap;html=1;fillColor=#fff2cc;strokeColor=#d6b656;align=left;labelPosition=center;verticalLabelPosition=middle;verticalAlign=middle;horizontal=1;strokeWidth=3;spacingLeft=4;" vertex="1" parent="1">
            <mxGeometry x="320" y="710" width="100" height="70" as="geometry" />
          </mxCell>
        </object>
        <object label="avoidMoneyLoss, privacy, headGranted, cost" concept="crossrun" usage="Comma separated list of identifiers. Predicates, variable as-is, goals, tasks, qualities, through camel-case representation." id="s7Z0I-bON0rsUeWnYovQ-41">
          <mxCell style="rounded=0;whiteSpace=wrap;html=1;fillColor=#e1d5e7;strokeColor=#9673a6;align=left;labelPosition=center;verticalLabelPosition=middle;verticalAlign=middle;horizontal=1;strokeWidth=3;spacingLeft=4;" vertex="1" parent="1">
            <mxGeometry x="430" y="710" width="205" height="50" as="geometry" />
          </mxCell>
        </object>
        <object label="Travel Organized" concept="goal" actor="default" id="s7Z0I-bON0rsUeWnYovQ-42">
          <mxCell style="rounded=1;whiteSpace=wrap;html=1;arcSize=46;fillColor=#d5e8d4;strokeColor=#688F51;fontSize=15;strokeWidth=3;" vertex="1" parent="1">
            <mxGeometry x="425" y="100" width="90" height="40" as="geometry" />
          </mxCell>
        </object>
        <object label="Tickets Booked" concept="goal" actor="default" id="s7Z0I-bON0rsUeWnYovQ-43">
          <mxCell style="rounded=1;whiteSpace=wrap;html=1;arcSize=46;fillColor=#d5e8d4;strokeColor=#688F51;fontSize=15;strokeWidth=3;" vertex="1" parent="1">
            <mxGeometry x="250" y="200" width="90" height="40" as="geometry" />
          </mxCell>
        </object>
        <object label="Authorization Signed" concept="goal" actor="default" id="s7Z0I-bON0rsUeWnYovQ-44">
          <mxCell style="rounded=1;whiteSpace=wrap;html=1;arcSize=46;fillColor=#d5e8d4;strokeColor=#688F51;fontSize=15;strokeWidth=3;" vertex="1" parent="1">
            <mxGeometry x="605" y="180" width="120" height="40" as="geometry" />
          </mxCell>
        </object>
        <object label="AND" concept="andDecomp" id="s7Z0I-bON0rsUeWnYovQ-45">
          <mxCell style="rounded=0;orthogonalLoop=1;jettySize=auto;html=1;fontSize=20;endArrow=ERone;endFill=0;endSize=17;strokeColor=#000000;" edge="1" parent="1" source="s7Z0I-bON0rsUeWnYovQ-43" target="s7Z0I-bON0rsUeWnYovQ-42">
            <mxGeometry relative="1" as="geometry">
              <mxPoint x="485" y="250" as="sourcePoint" />
              <mxPoint x="485" y="200" as="targetPoint" />
            </mxGeometry>
          </mxCell>
        </object>
        <object label="AND" concept="andDecomp" id="s7Z0I-bON0rsUeWnYovQ-46">
          <mxCell style="rounded=0;orthogonalLoop=1;jettySize=auto;html=1;fontSize=20;endArrow=ERone;endFill=0;endSize=17;strokeColor=#000000;" edge="1" parent="1" source="s7Z0I-bON0rsUeWnYovQ-44" target="s7Z0I-bON0rsUeWnYovQ-42">
            <mxGeometry relative="1" as="geometry">
              <mxPoint x="327.2222222222222" y="210" as="sourcePoint" />
              <mxPoint x="382.7777777777778" y="160" as="targetPoint" />
            </mxGeometry>
          </mxCell>
        </object>
        <object label="Book Refundable Tickets" concept="task" actor="default" id="s7Z0I-bON0rsUeWnYovQ-47">
          <mxCell style="shape=hexagon;perimeter=hexagonPerimeter2;whiteSpace=wrap;html=1;fixedSize=1;strokeWidth=3;fontSize=15;size=20;fillColor=#d5e8d4;strokeColor=#688F51;" vertex="1" parent="1">
            <mxGeometry x="165" y="300" width="110" height="50" as="geometry" />
          </mxCell>
        </object>
        <object label="Book Non-Refundable Tickets" concept="task" actor="default" id="s7Z0I-bON0rsUeWnYovQ-48">
          <mxCell style="shape=hexagon;perimeter=hexagonPerimeter2;whiteSpace=wrap;html=1;fixedSize=1;strokeWidth=3;fontSize=15;size=20;fillColor=#d5e8d4;strokeColor=#688F51;" vertex="1" parent="1">
            <mxGeometry x="315" y="290" width="140" height="50" as="geometry" />
          </mxCell>
        </object>
        <object label="OR" concept="orDecomp" id="s7Z0I-bON0rsUeWnYovQ-49">
          <mxCell style="orthogonalLoop=1;jettySize=auto;html=1;fontSize=20;endArrow=open;endFill=0;endSize=17;strokeColor=#000000;curved=1;" edge="1" parent="1" source="s7Z0I-bON0rsUeWnYovQ-47" target="s7Z0I-bON0rsUeWnYovQ-43">
            <mxGeometry x="0.0383" y="2" relative="1" as="geometry">
              <mxPoint x="345" y="240" as="sourcePoint" />
              <mxPoint x="345" y="180" as="targetPoint" />
              <mxPoint as="offset" />
            </mxGeometry>
          </mxCell>
        </object>
        <object label="OR" concept="orDecomp" id="s7Z0I-bON0rsUeWnYovQ-50">
          <mxCell style="orthogonalLoop=1;jettySize=auto;html=1;fontSize=20;endArrow=open;endFill=0;endSize=17;strokeColor=#000000;curved=1;" edge="1" parent="1" source="s7Z0I-bON0rsUeWnYovQ-48" target="s7Z0I-bON0rsUeWnYovQ-43">
            <mxGeometry x="0.0383" y="2" relative="1" as="geometry">
              <mxPoint x="385" y="360" as="sourcePoint" />
              <mxPoint x="290.71428571428567" y="250" as="targetPoint" />
              <mxPoint as="offset" />
            </mxGeometry>
          </mxCell>
        </object>
        <object label="" concept="effectGroup" id="s7Z0I-bON0rsUeWnYovQ-51">
          <mxCell style="ellipse;whiteSpace=wrap;html=1;aspect=fixed;strokeWidth=2;fontSize=15;fillColor=#e1d5e7;strokeColor=#9673a6;" vertex="1" parent="1">
            <mxGeometry x="210" y="390" width="20" height="20" as="geometry" />
          </mxCell>
        </object>
        <object label="eff" concept="effectLink" id="s7Z0I-bON0rsUeWnYovQ-52">
          <mxCell style="orthogonalLoop=1;jettySize=auto;html=1;fontSize=20;endArrow=open;endFill=0;endSize=7;elbow=vertical;strokeColor=#000302;" edge="1" target="s7Z0I-bON0rsUeWnYovQ-51" parent="1" source="s7Z0I-bON0rsUeWnYovQ-47">
            <mxGeometry relative="1" as="geometry">
              <mxPoint x="215" y="380" as="sourcePoint" />
              <mxPoint y="235" as="targetPoint" />
            </mxGeometry>
          </mxCell>
        </object>
        <object label="refTixSucc" concept="effect" status="attainment" actor="" id="s7Z0I-bON0rsUeWnYovQ-53">
          <mxCell style="ellipse;whiteSpace=wrap;html=1;strokeWidth=3;fontSize=15;fillColor=#e1d5e7;strokeColor=#0000FF;" vertex="1" parent="1">
            <mxGeometry x="130" y="460" width="100" height="40" as="geometry" />
          </mxCell>
        </object>
        <object label="refTixFailed" concept="effect" status="failure" actor="" id="s7Z0I-bON0rsUeWnYovQ-54">
          <mxCell style="ellipse;whiteSpace=wrap;html=1;strokeWidth=3;fontSize=15;fillColor=#e1d5e7;strokeColor=#d95f02;" vertex="1" parent="1">
            <mxGeometry x="230" y="480" width="100" height="40" as="geometry" />
          </mxCell>
        </object>
        <object label="0.95" concept="effectGroupLink" id="s7Z0I-bON0rsUeWnYovQ-55">
          <mxCell style="endArrow=openThin;html=1;fontSize=15;endFill=0;elbow=vertical;curved=1;strokeColor=#000000;" edge="1" source="s7Z0I-bON0rsUeWnYovQ-51" target="s7Z0I-bON0rsUeWnYovQ-53" parent="1">
            <mxGeometry x="-0.2" width="50" height="50" relative="1" as="geometry">
              <mxPoint x="312" y="465" as="sourcePoint" />
              <mxPoint x="312" y="515" as="targetPoint" />
              <mxPoint as="offset" />
            </mxGeometry>
          </mxCell>
        </object>
        <object label="0.05" concept="effectGroupLink" id="s7Z0I-bON0rsUeWnYovQ-56">
          <mxCell style="endArrow=openThin;html=1;fontSize=15;endFill=0;elbow=vertical;curved=1;strokeColor=#000000;" edge="1" source="s7Z0I-bON0rsUeWnYovQ-51" target="s7Z0I-bON0rsUeWnYovQ-54" parent="1">
            <mxGeometry x="-0.2" width="50" height="50" relative="1" as="geometry">
              <mxPoint x="178.44527140110836" y="502.55218729872297" as="sourcePoint" />
              <mxPoint x="131.91225062277442" y="555.5924992853409" as="targetPoint" />
              <mxPoint as="offset" />
            </mxGeometry>
          </mxCell>
        </object>
        <object label="" concept="effectGroup" id="s7Z0I-bON0rsUeWnYovQ-57">
          <mxCell style="ellipse;whiteSpace=wrap;html=1;aspect=fixed;strokeWidth=2;fontSize=15;fillColor=#e1d5e7;strokeColor=#9673a6;" vertex="1" parent="1">
            <mxGeometry x="395" y="380" width="20" height="20" as="geometry" />
          </mxCell>
        </object>
        <object label="eff" concept="effectLink" id="s7Z0I-bON0rsUeWnYovQ-58">
          <mxCell style="orthogonalLoop=1;jettySize=auto;html=1;fontSize=20;endArrow=open;endFill=0;endSize=7;elbow=vertical;strokeColor=#000302;" edge="1" target="s7Z0I-bON0rsUeWnYovQ-57" parent="1" source="s7Z0I-bON0rsUeWnYovQ-48">
            <mxGeometry relative="1" as="geometry">
              <mxPoint x="445" y="410" as="sourcePoint" />
              <mxPoint x="230" y="265" as="targetPoint" />
            </mxGeometry>
          </mxCell>
        </object>
        <object label="nonRefTixFailed" concept="effect" status="attainment" actor="" id="s7Z0I-bON0rsUeWnYovQ-59">
          <mxCell style="ellipse;whiteSpace=wrap;html=1;strokeWidth=3;fontSize=15;fillColor=#e1d5e7;strokeColor=#0000FF;" vertex="1" parent="1">
            <mxGeometry x="275" y="430" width="120" height="40" as="geometry" />
          </mxCell>
        </object>
        <object label="nonRefTixFailed" concept="effect" status="failure" actor="" id="s7Z0I-bON0rsUeWnYovQ-60">
          <mxCell style="ellipse;whiteSpace=wrap;html=1;strokeWidth=3;fontSize=15;fillColor=#e1d5e7;strokeColor=#d95f02;" vertex="1" parent="1">
            <mxGeometry x="385" y="470" width="120" height="40" as="geometry" />
          </mxCell>
        </object>
        <object label="0.5" concept="effectGroupLink" id="s7Z0I-bON0rsUeWnYovQ-61">
          <mxCell style="endArrow=openThin;html=1;fontSize=15;endFill=0;elbow=vertical;curved=1;strokeColor=#000000;" edge="1" source="s7Z0I-bON0rsUeWnYovQ-57" target="s7Z0I-bON0rsUeWnYovQ-59" parent="1">
            <mxGeometry x="-0.2" width="50" height="50" relative="1" as="geometry">
              <mxPoint x="542" y="495" as="sourcePoint" />
              <mxPoint x="542" y="545" as="targetPoint" />
              <mxPoint as="offset" />
            </mxGeometry>
          </mxCell>
        </object>
        <object label="0.5" concept="effectGroupLink" id="s7Z0I-bON0rsUeWnYovQ-62">
          <mxCell style="endArrow=openThin;html=1;fontSize=15;endFill=0;elbow=vertical;curved=1;strokeColor=#000000;" edge="1" source="s7Z0I-bON0rsUeWnYovQ-57" target="s7Z0I-bON0rsUeWnYovQ-60" parent="1">
            <mxGeometry x="-0.2" width="50" height="50" relative="1" as="geometry">
              <mxPoint x="408.44527140110836" y="532.552187298723" as="sourcePoint" />
              <mxPoint x="361.9122506227744" y="585.5924992853409" as="targetPoint" />
              <mxPoint as="offset" />
            </mxGeometry>
          </mxCell>
        </object>
        <object label="Committee Authorizes" concept="task" actor="default" id="s7Z0I-bON0rsUeWnYovQ-63">
          <mxCell style="shape=hexagon;perimeter=hexagonPerimeter2;whiteSpace=wrap;html=1;fixedSize=1;strokeWidth=3;fontSize=15;size=20;fillColor=#d5e8d4;strokeColor=#688F51;" vertex="1" parent="1">
            <mxGeometry x="500" y="320" width="130" height="40" as="geometry" />
          </mxCell>
        </object>
        <object label="Head Authorizes" concept="task" actor="default" id="s7Z0I-bON0rsUeWnYovQ-64">
          <mxCell style="shape=hexagon;perimeter=hexagonPerimeter2;whiteSpace=wrap;html=1;fixedSize=1;strokeWidth=3;fontSize=15;size=20;fillColor=#d5e8d4;strokeColor=#688F51;" vertex="1" parent="1">
            <mxGeometry x="715" y="330" width="130" height="40" as="geometry" />
          </mxCell>
        </object>
        <object label="OR" concept="orDecomp" id="s7Z0I-bON0rsUeWnYovQ-65">
          <mxCell style="orthogonalLoop=1;jettySize=auto;html=1;fontSize=20;endArrow=open;endFill=0;endSize=17;strokeColor=#000000;curved=1;" edge="1" parent="1" source="s7Z0I-bON0rsUeWnYovQ-63" target="s7Z0I-bON0rsUeWnYovQ-44">
            <mxGeometry x="0.0383" y="2" relative="1" as="geometry">
              <mxPoint x="381.19047619047615" y="310" as="sourcePoint" />
              <mxPoint x="324.04761904761926" y="250" as="targetPoint" />
              <mxPoint as="offset" />
            </mxGeometry>
          </mxCell>
        </object>
        <object label="OR" concept="orDecomp" id="s7Z0I-bON0rsUeWnYovQ-66">
          <mxCell style="orthogonalLoop=1;jettySize=auto;html=1;fontSize=20;endArrow=open;endFill=0;endSize=17;strokeColor=#000000;curved=1;" edge="1" parent="1" source="s7Z0I-bON0rsUeWnYovQ-64" target="s7Z0I-bON0rsUeWnYovQ-44">
            <mxGeometry x="0.0383" y="2" relative="1" as="geometry">
              <mxPoint x="640.909090909091" y="350" as="sourcePoint" />
              <mxPoint x="644.090909090909" y="280" as="targetPoint" />
              <mxPoint as="offset" />
            </mxGeometry>
          </mxCell>
        </object>
        <object label="" concept="effectGroup" id="s7Z0I-bON0rsUeWnYovQ-67">
          <mxCell style="ellipse;whiteSpace=wrap;html=1;aspect=fixed;strokeWidth=2;fontSize=15;fillColor=#e1d5e7;strokeColor=#9673a6;" vertex="1" parent="1">
            <mxGeometry x="575" y="440" width="20" height="20" as="geometry" />
          </mxCell>
        </object>
        <object label="eff" concept="effectLink" id="s7Z0I-bON0rsUeWnYovQ-68">
          <mxCell style="orthogonalLoop=1;jettySize=auto;html=1;fontSize=20;endArrow=open;endFill=0;endSize=7;elbow=vertical;strokeColor=#000302;" edge="1" target="s7Z0I-bON0rsUeWnYovQ-67" parent="1" source="s7Z0I-bON0rsUeWnYovQ-63">
            <mxGeometry relative="1" as="geometry">
              <mxPoint x="675" y="440" as="sourcePoint" />
              <mxPoint x="460" y="295" as="targetPoint" />
            </mxGeometry>
          </mxCell>
        </object>
        <object label="cmtGranted" concept="effect" status="attainment" actor="" id="s7Z0I-bON0rsUeWnYovQ-69">
          <mxCell style="ellipse;whiteSpace=wrap;html=1;strokeWidth=3;fontSize=15;fillColor=#e1d5e7;strokeColor=#0000FF;" vertex="1" parent="1">
            <mxGeometry x="475" y="530" width="100" height="40" as="geometry" />
          </mxCell>
        </object>
        <object label="cmtDenied" concept="effect" status="failure" actor="" id="s7Z0I-bON0rsUeWnYovQ-70">
          <mxCell style="ellipse;whiteSpace=wrap;html=1;strokeWidth=3;fontSize=15;fillColor=#e1d5e7;strokeColor=#d95f02;" vertex="1" parent="1">
            <mxGeometry x="580" y="500" width="100" height="40" as="geometry" />
          </mxCell>
        </object>
        <object label="0.5" concept="effectGroupLink" id="s7Z0I-bON0rsUeWnYovQ-71">
          <mxCell style="endArrow=openThin;html=1;fontSize=15;endFill=0;elbow=vertical;curved=1;strokeColor=#000000;" edge="1" source="s7Z0I-bON0rsUeWnYovQ-67" target="s7Z0I-bON0rsUeWnYovQ-69" parent="1">
            <mxGeometry x="-0.2" width="50" height="50" relative="1" as="geometry">
              <mxPoint x="772" y="525" as="sourcePoint" />
              <mxPoint x="772" y="575" as="targetPoint" />
              <mxPoint as="offset" />
            </mxGeometry>
          </mxCell>
        </object>
        <object label="0.5" concept="effectGroupLink" id="s7Z0I-bON0rsUeWnYovQ-72">
          <mxCell style="endArrow=openThin;html=1;fontSize=15;endFill=0;elbow=vertical;curved=1;strokeColor=#000000;" edge="1" source="s7Z0I-bON0rsUeWnYovQ-67" target="s7Z0I-bON0rsUeWnYovQ-70" parent="1">
            <mxGeometry x="-0.2" width="50" height="50" relative="1" as="geometry">
              <mxPoint x="638.4452714011084" y="562.552187298723" as="sourcePoint" />
              <mxPoint x="591.9122506227744" y="615.5924992853409" as="targetPoint" />
              <mxPoint as="offset" />
            </mxGeometry>
          </mxCell>
        </object>
        <object label="" concept="effectGroup" id="s7Z0I-bON0rsUeWnYovQ-73">
          <mxCell style="ellipse;whiteSpace=wrap;html=1;aspect=fixed;strokeWidth=2;fontSize=15;fillColor=#e1d5e7;strokeColor=#9673a6;" vertex="1" parent="1">
            <mxGeometry x="805" y="430" width="20" height="20" as="geometry" />
          </mxCell>
        </object>
        <object label="eff" concept="effectLink" id="s7Z0I-bON0rsUeWnYovQ-74">
          <mxCell style="orthogonalLoop=1;jettySize=auto;html=1;fontSize=20;endArrow=open;endFill=0;endSize=7;elbow=vertical;strokeColor=#000302;" edge="1" target="s7Z0I-bON0rsUeWnYovQ-73" parent="1" source="s7Z0I-bON0rsUeWnYovQ-64">
            <mxGeometry relative="1" as="geometry">
              <mxPoint x="875" y="360" as="sourcePoint" />
              <mxPoint x="660" y="215" as="targetPoint" />
            </mxGeometry>
          </mxCell>
        </object>
        <object label="headGranted" concept="effect" status="attainment" actor="" id="s7Z0I-bON0rsUeWnYovQ-75">
          <mxCell style="ellipse;whiteSpace=wrap;html=1;strokeWidth=3;fontSize=15;fillColor=#e1d5e7;strokeColor=#0000FF;" vertex="1" parent="1">
            <mxGeometry x="735" y="530" width="100" height="40" as="geometry" />
          </mxCell>
        </object>
        <object label="headDenied" concept="effect" status="failure" actor="" id="s7Z0I-bON0rsUeWnYovQ-76">
          <mxCell style="ellipse;whiteSpace=wrap;html=1;strokeWidth=3;fontSize=15;fillColor=#e1d5e7;strokeColor=#d95f02;" vertex="1" parent="1">
            <mxGeometry x="835" y="490" width="100" height="40" as="geometry" />
          </mxCell>
        </object>
        <object label="0.7" concept="effectGroupLink" id="s7Z0I-bON0rsUeWnYovQ-77">
          <mxCell style="endArrow=openThin;html=1;fontSize=15;endFill=0;elbow=vertical;curved=1;strokeColor=#000000;" edge="1" source="s7Z0I-bON0rsUeWnYovQ-73" target="s7Z0I-bON0rsUeWnYovQ-75" parent="1">
            <mxGeometry x="-0.2" width="50" height="50" relative="1" as="geometry">
              <mxPoint x="852" y="495" as="sourcePoint" />
              <mxPoint x="852" y="545" as="targetPoint" />
              <mxPoint as="offset" />
            </mxGeometry>
          </mxCell>
        </object>
        <object label="0.3" concept="effectGroupLink" id="s7Z0I-bON0rsUeWnYovQ-78">
          <mxCell style="endArrow=openThin;html=1;fontSize=15;endFill=0;elbow=vertical;curved=1;strokeColor=#000000;" edge="1" source="s7Z0I-bON0rsUeWnYovQ-73" target="s7Z0I-bON0rsUeWnYovQ-76" parent="1">
            <mxGeometry x="-0.2" width="50" height="50" relative="1" as="geometry">
              <mxPoint x="718.4452714011084" y="532.552187298723" as="sourcePoint" />
              <mxPoint x="671.9122506227744" y="585.5924992853409" as="targetPoint" />
              <mxPoint as="offset" />
            </mxGeometry>
          </mxCell>
        </object>
        <object label="pre" concept="precedenceLink" id="s7Z0I-bON0rsUeWnYovQ-79">
          <mxCell style="orthogonalLoop=1;jettySize=auto;html=1;fontSize=20;endArrow=open;endFill=0;endSize=7;elbow=vertical;curved=1;strokeColor=#000000;" edge="1" parent="1" source="s7Z0I-bON0rsUeWnYovQ-38" target="s7Z0I-bON0rsUeWnYovQ-64">
            <mxGeometry x="-0.099" y="-7" relative="1" as="geometry">
              <mxPoint x="635" y="430" as="sourcePoint" />
              <mxPoint x="695" y="420" as="targetPoint" />
              <Array as="points">
                <mxPoint x="775" y="240" />
              </Array>
              <mxPoint as="offset" />
            </mxGeometry>
          </mxCell>
        </object>
        <object label="npr" concept="negPrecedenceLink" id="s7Z0I-bON0rsUeWnYovQ-80">
          <mxCell style="orthogonalLoop=1;jettySize=auto;html=1;fontSize=20;endArrow=open;endFill=0;endSize=7;elbow=vertical;curved=1;strokeColor=#000000;" edge="1" parent="1" source="s7Z0I-bON0rsUeWnYovQ-48" target="s7Z0I-bON0rsUeWnYovQ-63">
            <mxGeometry x="0.2239" y="-22" relative="1" as="geometry">
              <mxPoint x="635" y="430" as="sourcePoint" />
              <mxPoint x="695" y="420" as="targetPoint" />
              <Array as="points">
                <mxPoint x="525" y="260" />
              </Array>
              <mxPoint as="offset" />
            </mxGeometry>
          </mxCell>
        </object>
        <object label="pre" concept="precedenceLink" id="s7Z0I-bON0rsUeWnYovQ-83">
          <mxCell style="orthogonalLoop=1;jettySize=auto;html=1;fontSize=20;endArrow=open;endFill=0;endSize=7;elbow=vertical;curved=1;strokeColor=#000000;" edge="1" parent="1" source="s7Z0I-bON0rsUeWnYovQ-59" target="s7Z0I-bON0rsUeWnYovQ-64">
            <mxGeometry x="-0.099" y="-7" relative="1" as="geometry">
              <mxPoint x="872.5" y="180" as="sourcePoint" />
              <mxPoint x="789.090909090909" y="340" as="targetPoint" />
              <Array as="points">
                <mxPoint x="545" y="370" />
              </Array>
              <mxPoint as="offset" />
            </mxGeometry>
          </mxCell>
        </object>
        <object label="Avoid Money Loss" concept="quality" actor="default" id="s7Z0I-bON0rsUeWnYovQ-84">
          <mxCell style="ellipse;shape=cloud;whiteSpace=wrap;html=1;strokeWidth=3;fontSize=15;fillColor=#d5e8d4;strokeColor=#688F51;" vertex="1" parent="1">
            <mxGeometry x="310" y="580" width="100" height="60" as="geometry" />
          </mxCell>
        </object>
        <object label="1.0" concept="contributionLink" id="s7Z0I-bON0rsUeWnYovQ-85">
          <mxCell style="endArrow=classic;html=1;fontSize=15;elbow=vertical;curved=1;strokeColor=#000000;" edge="1" parent="1" source="s7Z0I-bON0rsUeWnYovQ-53" target="s7Z0I-bON0rsUeWnYovQ-84">
            <mxGeometry x="-0.0766" relative="1" as="geometry">
              <mxPoint x="435" y="580.094972067039" as="sourcePoint" />
              <mxPoint x="488.31698548120585" y="580.0294873246582" as="targetPoint" />
              <Array as="points">
                <mxPoint x="205" y="580" />
              </Array>
              <mxPoint as="offset" />
            </mxGeometry>
          </mxCell>
        </object>
        <object label="Privacy" concept="quality" actor="default" id="s7Z0I-bON0rsUeWnYovQ-86">
          <mxCell style="ellipse;shape=cloud;whiteSpace=wrap;html=1;strokeWidth=3;fontSize=15;fillColor=#d5e8d4;strokeColor=#688F51;" vertex="1" parent="1">
            <mxGeometry x="635" y="560" width="100" height="60" as="geometry" />
          </mxCell>
        </object>
        <object label="0.8" concept="contributionLink" id="s7Z0I-bON0rsUeWnYovQ-87">
          <mxCell style="endArrow=classic;html=1;fontSize=15;elbow=vertical;curved=1;strokeColor=#000000;" edge="1" parent="1" source="s7Z0I-bON0rsUeWnYovQ-64" target="s7Z0I-bON0rsUeWnYovQ-86">
            <mxGeometry x="-0.0766" relative="1" as="geometry">
              <mxPoint x="865" y="600" as="sourcePoint" />
              <mxPoint x="320" y="620" as="targetPoint" />
              <Array as="points">
                <mxPoint x="765" y="510" />
              </Array>
              <mxPoint as="offset" />
            </mxGeometry>
          </mxCell>
        </object>
        <object label="0.3" concept="contributionLink" id="s7Z0I-bON0rsUeWnYovQ-88">
          <mxCell style="endArrow=classic;html=1;fontSize=15;elbow=vertical;curved=1;strokeColor=#000000;" edge="1" parent="1" source="s7Z0I-bON0rsUeWnYovQ-63" target="s7Z0I-bON0rsUeWnYovQ-86">
            <mxGeometry x="-0.24" y="-22" relative="1" as="geometry">
              <mxPoint x="796.8421052631579" y="380" as="sourcePoint" />
              <mxPoint x="787.0336595319577" y="633.0699716831627" as="targetPoint" />
              <Array as="points">
                <mxPoint x="704" y="440" />
              </Array>
              <mxPoint as="offset" />
            </mxGeometry>
          </mxCell>
        </object>
        <object label="Overall Quality" concept="quality" actor="default" id="s7Z0I-bON0rsUeWnYovQ-89">
          <mxCell style="ellipse;shape=cloud;whiteSpace=wrap;html=1;strokeWidth=3;fontSize=15;fillColor=#d5e8d4;strokeColor=#688F51;" vertex="1" parent="1">
            <mxGeometry x="500" y="630" width="115" height="60" as="geometry" />
          </mxCell>
        </object>
        <object label="0.7" concept="contributionLink" id="s7Z0I-bON0rsUeWnYovQ-90">
          <mxCell style="endArrow=classic;html=1;fontSize=15;elbow=vertical;curved=1;strokeColor=#000000;" edge="1" parent="1" source="s7Z0I-bON0rsUeWnYovQ-84" target="s7Z0I-bON0rsUeWnYovQ-89">
            <mxGeometry x="-0.0766" relative="1" as="geometry">
              <mxPoint x="595" y="580.094972067039" as="sourcePoint" />
              <mxPoint x="648.3169854812058" y="580.0294873246582" as="targetPoint" />
              <Array as="points">
                <mxPoint x="435" y="660" />
              </Array>
              <mxPoint as="offset" />
            </mxGeometry>
          </mxCell>
        </object>
        <object label="0.3" concept="contributionLink" id="s7Z0I-bON0rsUeWnYovQ-91">
          <mxCell style="endArrow=classic;html=1;fontSize=15;elbow=vertical;curved=1;strokeColor=#000000;" edge="1" parent="1" source="s7Z0I-bON0rsUeWnYovQ-86" target="s7Z0I-bON0rsUeWnYovQ-89">
            <mxGeometry x="-0.0766" relative="1" as="geometry">
              <mxPoint x="403.4482365811225" y="642.2988243874149" as="sourcePoint" />
              <mxPoint x="510" y="670" as="targetPoint" />
              <Array as="points">
                <mxPoint x="675" y="674" />
              </Array>
              <mxPoint as="offset" />
            </mxGeometry>
          </mxCell>
        </object>
      </root>
    </mxGraphModel>
  </diagram>
</mxfile>
